<?xml version="1.0" encoding="UTF-8" standalone="no"?>
<!-- Created with Inkscape (http://www.inkscape.org/) -->

<svg
   xmlns:dc="http://purl.org/dc/elements/1.1/"
   xmlns:cc="http://creativecommons.org/ns#"
   xmlns:rdf="http://www.w3.org/1999/02/22-rdf-syntax-ns#"
   xmlns:svg="http://www.w3.org/2000/svg"
   xmlns="http://www.w3.org/2000/svg"
   xmlns:xlink="http://www.w3.org/1999/xlink"
   xmlns:sodipodi="http://sodipodi.sourceforge.net/DTD/sodipodi-0.dtd"
   xmlns:inkscape="http://www.inkscape.org/namespaces/inkscape"
   width="800"
   height="800"
   id="svg2"
   sodipodi:version="0.32"
   inkscape:version="0.47 r22583"
   version="1.0"
   sodipodi:docname="notification-icon.svg"
   inkscape:output_extension="org.inkscape.output.svg.inkscape"
   inkscape:export-filename="/tmp/pagefeed-notification.png"
   inkscape:export-xdpi="300"
   inkscape:export-ydpi="300"
   style="display:inline;enable-background:new">
  <defs
     id="defs4">
    <linearGradient
       id="linearGradient3504">
      <stop
         style="stop-color:#311515;stop-opacity:1;"
         offset="0"
         id="stop3506" />
      <stop
         style="stop-color:#2f1414;stop-opacity:0.51449275;"
         offset="1"
         id="stop3508" />
    </linearGradient>
    <linearGradient
       id="linearGradient3485">
      <stop
         style="stop-color:#453434;stop-opacity:1;"
         offset="0"
         id="stop3487" />
      <stop
         style="stop-color:#8d7979;stop-opacity:1;"
         offset="1"
         id="stop3489" />
    </linearGradient>
    <linearGradient
       id="linearGradient3191">
      <stop
         style="stop-color:#b4b4b4;stop-opacity:1;"
         offset="0"
         id="stop3193" />
      <stop
         style="stop-color:#616161;stop-opacity:1;"
         offset="1"
         id="stop3195" />
    </linearGradient>
    <linearGradient
       id="linearGradient3180">
      <stop
         style="stop-color:#6c84dd;stop-opacity:1;"
         offset="0"
         id="stop3182" />
      <stop
         style="stop-color:#76c4ff;stop-opacity:1;"
         offset="1"
         id="stop3184" />
    </linearGradient>
    <inkscape:perspective
       sodipodi:type="inkscape:persp3d"
       inkscape:vp_x="0 : 526.18109 : 1"
       inkscape:vp_y="0 : 1000 : 0"
       inkscape:vp_z="744.09448 : 526.18109 : 1"
       inkscape:persp3d-origin="372.04724 : 350.78739 : 1"
       id="perspective10" />
    <inkscape:perspective
       id="perspective2464"
       inkscape:persp3d-origin="372.04724 : 350.78739 : 1"
       inkscape:vp_z="744.09448 : 526.18109 : 1"
       inkscape:vp_y="0 : 1000 : 0"
       inkscape:vp_x="0 : 526.18109 : 1"
       sodipodi:type="inkscape:persp3d" />
    <radialGradient
       inkscape:collect="always"
       xlink:href="#linearGradient3485"
       id="radialGradient3491"
       cx="421.40283"
       cy="445.13702"
       fx="421.40283"
       fy="445.13702"
       r="149.39078"
       gradientTransform="matrix(0.00659897,-1.8831413,1.031749,0.00361544,-120.52814,1271.478)"
       gradientUnits="userSpaceOnUse" />
    <radialGradient
       inkscape:collect="always"
       xlink:href="#linearGradient3504"
       id="radialGradient3510"
       cx="385.9375"
       cy="453.74765"
       fx="385.9375"
       fy="453.74765"
       r="98.4375"
       gradientTransform="matrix(1,0,0,1.5460078,0,-247.74973)"
       gradientUnits="userSpaceOnUse" />
    <linearGradient
       inkscape:collect="always"
       xlink:href="#linearGradient3191"
       id="linearGradient3523"
       gradientUnits="userSpaceOnUse"
       gradientTransform="translate(40,0)"
       x1="205.76535"
       y1="241.5701"
       x2="404.14954"
       y2="675.9502" />
    <linearGradient
       inkscape:collect="always"
       xlink:href="#linearGradient3191"
       id="linearGradient3561"
       gradientUnits="userSpaceOnUse"
       gradientTransform="translate(40,0)"
       x1="205.76535"
       y1="241.5701"
       x2="404.14954"
       y2="675.9502" />
    <linearGradient
       inkscape:collect="always"
       xlink:href="#linearGradient3191"
       id="linearGradient3565"
       gradientUnits="userSpaceOnUse"
       gradientTransform="translate(40,0)"
       x1="205.76535"
       y1="241.5701"
       x2="404.14954"
       y2="675.9502" />
    <linearGradient
       inkscape:collect="always"
       xlink:href="#linearGradient3191"
       id="linearGradient3569"
       gradientUnits="userSpaceOnUse"
       gradientTransform="translate(40,0)"
       x1="205.76535"
       y1="241.5701"
       x2="404.14954"
       y2="675.9502" />
    <linearGradient
       inkscape:collect="always"
       xlink:href="#linearGradient3191"
       id="linearGradient3573"
       gradientUnits="userSpaceOnUse"
       gradientTransform="translate(40,0)"
       x1="205.76535"
       y1="241.5701"
       x2="404.14954"
       y2="675.9502" />
    <linearGradient
       inkscape:collect="always"
       xlink:href="#linearGradient3191"
       id="linearGradient3577"
       gradientUnits="userSpaceOnUse"
       gradientTransform="translate(40,0)"
       x1="205.76535"
       y1="241.5701"
       x2="404.14954"
       y2="675.9502" />
    <linearGradient
       inkscape:collect="always"
       xlink:href="#linearGradient3191"
       id="linearGradient3581"
       gradientUnits="userSpaceOnUse"
       gradientTransform="translate(40,0)"
       x1="205.76535"
       y1="241.5701"
       x2="404.14954"
       y2="675.9502" />
    <linearGradient
       inkscape:collect="always"
       xlink:href="#linearGradient3191"
       id="linearGradient3585"
       gradientUnits="userSpaceOnUse"
       gradientTransform="translate(40,0)"
       x1="205.76535"
       y1="241.5701"
       x2="404.14954"
       y2="675.9502" />
    <linearGradient
       inkscape:collect="always"
       xlink:href="#linearGradient3191"
       id="linearGradient3589"
       gradientUnits="userSpaceOnUse"
       gradientTransform="translate(40,0)"
       x1="205.76535"
       y1="241.5701"
       x2="404.14954"
       y2="675.9502" />
    <linearGradient
       inkscape:collect="always"
       xlink:href="#linearGradient3191"
       id="linearGradient3593"
       gradientUnits="userSpaceOnUse"
       gradientTransform="translate(40,0)"
       x1="205.76535"
       y1="241.5701"
       x2="404.14954"
       y2="675.9502" />
    <linearGradient
       inkscape:collect="always"
       xlink:href="#linearGradient3191"
       id="linearGradient3597"
       gradientUnits="userSpaceOnUse"
       gradientTransform="translate(40,0)"
       x1="205.76535"
       y1="241.5701"
       x2="404.14954"
       y2="675.9502" />
    <linearGradient
       inkscape:collect="always"
       xlink:href="#linearGradient3191"
       id="linearGradient3603"
       gradientUnits="userSpaceOnUse"
       gradientTransform="translate(40,0)"
       x1="205.76535"
       y1="241.5701"
       x2="404.14954"
       y2="675.9502" />
    <linearGradient
       inkscape:collect="always"
       xlink:href="#linearGradient3191"
       id="linearGradient3607"
       gradientUnits="userSpaceOnUse"
       gradientTransform="translate(40,0)"
       x1="205.76535"
       y1="241.5701"
       x2="404.14954"
       y2="675.9502" />
    <linearGradient
       inkscape:collect="always"
       xlink:href="#linearGradient3191"
       id="linearGradient3611"
       gradientUnits="userSpaceOnUse"
       gradientTransform="translate(40,0)"
       x1="205.76535"
       y1="241.5701"
       x2="404.14954"
       y2="675.9502" />
    <linearGradient
       inkscape:collect="always"
       xlink:href="#linearGradient3191"
       id="linearGradient3615"
       gradientUnits="userSpaceOnUse"
       gradientTransform="translate(40,0)"
       x1="205.76535"
       y1="241.5701"
       x2="404.14954"
       y2="675.9502" />
    <linearGradient
       inkscape:collect="always"
       xlink:href="#linearGradient3191"
       id="linearGradient3619"
       gradientUnits="userSpaceOnUse"
       gradientTransform="translate(40,0)"
       x1="205.76535"
       y1="241.5701"
       x2="404.14954"
       y2="675.9502" />
    <linearGradient
       inkscape:collect="always"
       xlink:href="#linearGradient3191"
       id="linearGradient3623"
       gradientUnits="userSpaceOnUse"
       gradientTransform="translate(40,0)"
       x1="205.76535"
       y1="241.5701"
       x2="404.14954"
       y2="675.9502" />
    <linearGradient
       inkscape:collect="always"
       xlink:href="#linearGradient3191"
       id="linearGradient3627"
       gradientUnits="userSpaceOnUse"
       gradientTransform="translate(40,0)"
       x1="205.76535"
       y1="241.5701"
       x2="404.14954"
       y2="675.9502" />
    <linearGradient
       inkscape:collect="always"
       xlink:href="#linearGradient3191"
       id="linearGradient3631"
       gradientUnits="userSpaceOnUse"
       gradientTransform="translate(40,0)"
       x1="205.76535"
       y1="241.5701"
       x2="404.14954"
       y2="675.9502" />
    <linearGradient
       inkscape:collect="always"
       xlink:href="#linearGradient3191"
       id="linearGradient3635"
       gradientUnits="userSpaceOnUse"
       gradientTransform="translate(40,0)"
       x1="205.76535"
       y1="241.5701"
       x2="404.14954"
       y2="675.9502" />
    <linearGradient
       inkscape:collect="always"
       xlink:href="#linearGradient3191"
       id="linearGradient3639"
       gradientUnits="userSpaceOnUse"
       gradientTransform="translate(40,0)"
       x1="205.76535"
       y1="241.5701"
       x2="404.14954"
       y2="675.9502" />
    <linearGradient
       inkscape:collect="always"
       xlink:href="#linearGradient3191"
       id="linearGradient3645"
       gradientUnits="userSpaceOnUse"
       gradientTransform="translate(40,0)"
       x1="205.76535"
       y1="241.5701"
       x2="404.14954"
       y2="675.9502" />
    <linearGradient
       inkscape:collect="always"
       xlink:href="#linearGradient3191"
       id="linearGradient3649"
       gradientUnits="userSpaceOnUse"
       gradientTransform="translate(40,0)"
       x1="205.76535"
       y1="241.5701"
       x2="404.14954"
       y2="675.9502" />
    <linearGradient
       inkscape:collect="always"
       xlink:href="#linearGradient3191"
       id="linearGradient3653"
       gradientUnits="userSpaceOnUse"
       gradientTransform="translate(40,0)"
       x1="205.76535"
       y1="241.5701"
       x2="404.14954"
       y2="675.9502" />
    <linearGradient
       inkscape:collect="always"
       xlink:href="#linearGradient3191"
       id="linearGradient3657"
       gradientUnits="userSpaceOnUse"
       gradientTransform="translate(40,0)"
       x1="205.76535"
       y1="241.5701"
       x2="404.14954"
       y2="675.9502" />
    <linearGradient
       inkscape:collect="always"
       xlink:href="#linearGradient3191"
       id="linearGradient3661"
       gradientUnits="userSpaceOnUse"
       gradientTransform="translate(40,0)"
       x1="205.76535"
       y1="241.5701"
       x2="404.14954"
       y2="675.9502" />
    <linearGradient
       inkscape:collect="always"
       xlink:href="#linearGradient3191"
       id="linearGradient3665"
       gradientUnits="userSpaceOnUse"
       gradientTransform="translate(40,0)"
       x1="205.76535"
       y1="241.5701"
       x2="404.14954"
       y2="675.9502" />
    <linearGradient
       inkscape:collect="always"
       xlink:href="#linearGradient3191"
       id="linearGradient3669"
       gradientUnits="userSpaceOnUse"
       gradientTransform="translate(40,0)"
       x1="205.76535"
       y1="241.5701"
       x2="404.14954"
       y2="675.9502" />
    <linearGradient
       inkscape:collect="always"
       xlink:href="#linearGradient3191"
       id="linearGradient3673"
       gradientUnits="userSpaceOnUse"
       gradientTransform="translate(40,0)"
       x1="205.76535"
       y1="241.5701"
       x2="404.14954"
       y2="675.9502" />
    <linearGradient
       inkscape:collect="always"
       xlink:href="#linearGradient3191"
       id="linearGradient3681"
       gradientUnits="userSpaceOnUse"
       gradientTransform="translate(40,0)"
       x1="205.76535"
       y1="241.5701"
       x2="404.14954"
       y2="675.9502" />
    <linearGradient
       inkscape:collect="always"
       xlink:href="#linearGradient3191"
       id="linearGradient3685"
       gradientUnits="userSpaceOnUse"
       gradientTransform="translate(40,0)"
       x1="205.76535"
       y1="241.5701"
       x2="404.14954"
       y2="675.9502" />
    <linearGradient
       inkscape:collect="always"
       xlink:href="#linearGradient3191"
       id="linearGradient3689"
       gradientUnits="userSpaceOnUse"
       gradientTransform="translate(40,0)"
       x1="205.76535"
       y1="241.5701"
       x2="404.14954"
       y2="675.9502" />
    <linearGradient
       inkscape:collect="always"
       xlink:href="#linearGradient3191"
       id="linearGradient3693"
       gradientUnits="userSpaceOnUse"
       gradientTransform="translate(40,0)"
       x1="205.76535"
       y1="241.5701"
       x2="404.14954"
       y2="675.9502" />
    <linearGradient
       inkscape:collect="always"
       xlink:href="#linearGradient3191"
       id="linearGradient3697"
       gradientUnits="userSpaceOnUse"
       gradientTransform="translate(40,0)"
       x1="205.76535"
       y1="241.5701"
       x2="404.14954"
       y2="675.9502" />
    <linearGradient
       inkscape:collect="always"
       xlink:href="#linearGradient3191"
       id="linearGradient3701"
       gradientUnits="userSpaceOnUse"
       gradientTransform="translate(40,0)"
       x1="205.76535"
       y1="241.5701"
       x2="404.14954"
       y2="675.9502" />
    <linearGradient
       inkscape:collect="always"
       xlink:href="#linearGradient3191"
       id="linearGradient3705"
       gradientUnits="userSpaceOnUse"
       gradientTransform="translate(40,0)"
       x1="205.76535"
       y1="241.5701"
       x2="404.14954"
       y2="675.9502" />
    <linearGradient
       inkscape:collect="always"
       xlink:href="#linearGradient3191"
       id="linearGradient3709"
       gradientUnits="userSpaceOnUse"
       gradientTransform="translate(40,0)"
       x1="205.76535"
       y1="241.5701"
       x2="404.14954"
       y2="675.9502" />
    <linearGradient
       inkscape:collect="always"
       xlink:href="#linearGradient3191"
       id="linearGradient3713"
       gradientUnits="userSpaceOnUse"
       gradientTransform="translate(40,0)"
       x1="205.76535"
       y1="241.5701"
       x2="404.14954"
       y2="675.9502" />
    <linearGradient
       inkscape:collect="always"
       xlink:href="#linearGradient3191"
       id="linearGradient3717"
       gradientUnits="userSpaceOnUse"
       gradientTransform="translate(40,0)"
       x1="205.76535"
       y1="241.5701"
       x2="404.14954"
       y2="675.9502" />
    <linearGradient
       inkscape:collect="always"
       xlink:href="#linearGradient3191"
       id="linearGradient3721"
       gradientUnits="userSpaceOnUse"
       gradientTransform="translate(40,0)"
       x1="205.76535"
       y1="241.5701"
       x2="404.14954"
       y2="675.9502" />
    <linearGradient
       inkscape:collect="always"
       xlink:href="#linearGradient3191"
       id="linearGradient3725"
       gradientUnits="userSpaceOnUse"
       gradientTransform="translate(40,0)"
       x1="205.76535"
       y1="241.5701"
       x2="404.14954"
       y2="675.9502" />
    <linearGradient
       inkscape:collect="always"
       xlink:href="#linearGradient3191"
       id="linearGradient3731"
       gradientUnits="userSpaceOnUse"
       gradientTransform="translate(40,0)"
       x1="205.76535"
       y1="241.5701"
       x2="404.14954"
       y2="675.9502" />
    <linearGradient
       inkscape:collect="always"
       xlink:href="#linearGradient3191"
       id="linearGradient3735"
       gradientUnits="userSpaceOnUse"
       gradientTransform="translate(40,0)"
       x1="205.76535"
       y1="241.5701"
       x2="404.14954"
       y2="675.9502" />
    <linearGradient
       inkscape:collect="always"
       xlink:href="#linearGradient3191"
       id="linearGradient3739"
       gradientUnits="userSpaceOnUse"
       gradientTransform="translate(40,0)"
       x1="205.76535"
       y1="241.5701"
       x2="404.14954"
       y2="675.9502" />
    <linearGradient
       inkscape:collect="always"
       xlink:href="#linearGradient3191"
       id="linearGradient3743"
       gradientUnits="userSpaceOnUse"
       gradientTransform="translate(40,0)"
       x1="205.76535"
       y1="241.5701"
       x2="404.14954"
       y2="675.9502" />
    <linearGradient
       inkscape:collect="always"
       xlink:href="#linearGradient3191"
       id="linearGradient3747"
       gradientUnits="userSpaceOnUse"
       gradientTransform="translate(40,0)"
       x1="205.76535"
       y1="241.5701"
       x2="404.14954"
       y2="675.9502" />
    <linearGradient
       inkscape:collect="always"
       xlink:href="#linearGradient3191"
       id="linearGradient3751"
       gradientUnits="userSpaceOnUse"
       gradientTransform="translate(40,0)"
       x1="205.76535"
       y1="241.5701"
       x2="404.14954"
       y2="675.9502" />
    <linearGradient
       inkscape:collect="always"
       xlink:href="#linearGradient3191"
       id="linearGradient3755"
       gradientUnits="userSpaceOnUse"
       gradientTransform="translate(40,0)"
       x1="205.76535"
       y1="241.5701"
       x2="404.14954"
       y2="675.9502" />
    <linearGradient
       inkscape:collect="always"
       xlink:href="#linearGradient3191"
       id="linearGradient3759"
       gradientUnits="userSpaceOnUse"
       gradientTransform="translate(40,0)"
       x1="205.76535"
       y1="241.5701"
       x2="404.14954"
       y2="675.9502" />
    <linearGradient
       inkscape:collect="always"
       xlink:href="#linearGradient3191"
       id="linearGradient3769"
       gradientUnits="userSpaceOnUse"
       gradientTransform="translate(40,0)"
       x1="205.76535"
       y1="241.5701"
       x2="404.14954"
       y2="675.9502" />
    <linearGradient
       inkscape:collect="always"
       xlink:href="#linearGradient3191"
       id="linearGradient3773"
       gradientUnits="userSpaceOnUse"
       gradientTransform="translate(40,0)"
       x1="205.76535"
       y1="241.5701"
       x2="404.14954"
       y2="675.9502" />
    <linearGradient
       inkscape:collect="always"
       xlink:href="#linearGradient3191"
       id="linearGradient3777"
       gradientUnits="userSpaceOnUse"
       gradientTransform="translate(40,0)"
       x1="205.76535"
       y1="241.5701"
       x2="404.14954"
       y2="675.9502" />
    <linearGradient
       inkscape:collect="always"
       xlink:href="#linearGradient3191"
       id="linearGradient3781"
       gradientUnits="userSpaceOnUse"
       gradientTransform="translate(40,0)"
       x1="205.76535"
       y1="241.5701"
       x2="404.14954"
       y2="675.9502" />
    <linearGradient
       inkscape:collect="always"
       xlink:href="#linearGradient3191"
       id="linearGradient3787"
       gradientUnits="userSpaceOnUse"
       gradientTransform="translate(40,0)"
       x1="205.76535"
       y1="241.5701"
       x2="404.14954"
       y2="675.9502" />
    <linearGradient
       inkscape:collect="always"
       xlink:href="#linearGradient3191"
       id="linearGradient3791"
       gradientUnits="userSpaceOnUse"
       gradientTransform="translate(40,0)"
       x1="205.76535"
       y1="241.5701"
       x2="404.14954"
       y2="675.9502" />
    <linearGradient
       inkscape:collect="always"
       xlink:href="#linearGradient3191"
       id="linearGradient3795"
       gradientUnits="userSpaceOnUse"
       gradientTransform="translate(40,0)"
       x1="205.76535"
       y1="241.5701"
       x2="404.14954"
       y2="675.9502" />
    <linearGradient
       inkscape:collect="always"
       xlink:href="#linearGradient3191"
       id="linearGradient3799"
       gradientUnits="userSpaceOnUse"
       gradientTransform="translate(40,0)"
       x1="205.76535"
       y1="241.5701"
       x2="404.14954"
       y2="675.9502" />
    <radialGradient
       inkscape:collect="always"
       xlink:href="#linearGradient3485"
       id="radialGradient3093"
       gradientUnits="userSpaceOnUse"
       gradientTransform="matrix(0.00659897,-1.8831413,1.031749,0.00361544,-917.40314,1062.103)"
       cx="421.40283"
       cy="445.13702"
       fx="421.40283"
       fy="445.13702"
       r="149.39078" />
    <radialGradient
       inkscape:collect="always"
       xlink:href="#linearGradient3504"
       id="radialGradient3095"
       gradientUnits="userSpaceOnUse"
       gradientTransform="matrix(1,0,0,1.5460078,-796.875,-457.12473)"
       cx="385.9375"
       cy="453.74765"
       fx="385.9375"
       fy="453.74765"
       r="98.4375" />
    <linearGradient
       inkscape:collect="always"
       xlink:href="#linearGradient3191"
       id="linearGradient3097"
       gradientUnits="userSpaceOnUse"
       gradientTransform="translate(-756.875,-209.375)"
       x1="205.76535"
       y1="241.5701"
       x2="404.14954"
       y2="675.9502" />
    <linearGradient
       inkscape:collect="always"
       xlink:href="#linearGradient3180"
       id="linearGradient3099"
       gradientUnits="userSpaceOnUse"
       x1="646.50311"
       y1="295.13815"
       x2="624.62811"
       y2="175.04504"
       gradientTransform="translate(-796.875,-209.375)" />
    <radialGradient
       inkscape:collect="always"
       xlink:href="#linearGradient3485"
       id="radialGradient3874"
       gradientUnits="userSpaceOnUse"
       gradientTransform="matrix(0.00659897,-1.8831413,1.031749,0.00361544,-734.59064,1135.5405)"
       cx="421.40283"
       cy="445.13702"
       fx="421.40283"
       fy="445.13702"
       r="149.39078" />
    <linearGradient
       inkscape:collect="always"
       xlink:href="#linearGradient3180"
       id="linearGradient2969"
       gradientUnits="userSpaceOnUse"
       x1="646.50311"
       y1="295.13815"
       x2="624.62811"
       y2="175.04504"
       gradientTransform="matrix(0.7248074,0,0,0.7248074,126.00046,110.23171)" />
    <radialGradient
       inkscape:collect="always"
       xlink:href="#linearGradient3485"
       id="radialGradient3216"
       gradientUnits="userSpaceOnUse"
       gradientTransform="matrix(0.00659897,-1.8831413,1.031749,0.00361544,-120.52814,1271.478)"
       cx="421.40283"
       cy="445.13702"
       fx="421.40283"
       fy="445.13702"
       r="149.39078" />
    <inkscape:perspective
       id="perspective5499"
       inkscape:persp3d-origin="0.5 : 0.33333333 : 1"
       inkscape:vp_z="1 : 0.5 : 1"
       inkscape:vp_y="0 : 1000 : 0"
       inkscape:vp_x="0 : 0.5 : 1"
       sodipodi:type="inkscape:persp3d" />
    <linearGradient
       id="linearGradient3180-1">
      <stop
         style="stop-color:#6c84dd;stop-opacity:1;"
         offset="0"
         id="stop3182-0" />
      <stop
         style="stop-color:#76c4ff;stop-opacity:1;"
         offset="1"
         id="stop3184-9" />
    </linearGradient>
  </defs>
  <sodipodi:namedview
     id="base"
     pagecolor="#ffffff"
     bordercolor="#666666"
     borderopacity="1.0"
     gridtolerance="10000"
     guidetolerance="10"
     objecttolerance="10"
     inkscape:pageopacity="0.0"
     inkscape:pageshadow="2"
     inkscape:zoom="0.45254834"
     inkscape:cx="290.59097"
     inkscape:cy="495.77775"
     inkscape:document-units="px"
     inkscape:current-layer="layer1"
     showgrid="false"
     inkscape:window-width="1068"
     inkscape:window-height="1142"
     inkscape:window-x="0"
     inkscape:window-y="54"
     inkscape:window-maximized="0" />
  <metadata
     id="metadata7">
    <rdf:RDF>
      <cc:Work
         rdf:about="">
        <dc:format>image/svg+xml</dc:format>
        <dc:type
           rdf:resource="http://purl.org/dc/dcmitype/StillImage" />
        <dc:title />
      </cc:Work>
    </rdf:RDF>
  </metadata>
  <g
     inkscape:groupmode="layer"
     id="layer8"
     inkscape:label="bg rss"
     style="display:inline">
    <path
       style="fill:url(#radialGradient3491);fill-opacity:1;fill-rule:evenodd;stroke:#4a4343;stroke-width:7.9000001;stroke-linecap:butt;stroke-linejoin:miter;stroke-miterlimit:4;stroke-opacity:1;stroke-dasharray:none;display:inline"
       d="m 464.25741,263.619 c 0,0 46.95953,20.57949 25.52919,50.90071 -21.47001,30.37735 -38.83383,63.42904 -37.79697,106.63374 1.20663,49.49736 34.77206,85.85153 71.67415,94.49606 8.78641,2.05827 -80.28456,48.33891 -80.28456,48.33891 L 233.39204,490.65932 370.00176,326.40588 464.25741,263.619 z"
       id="path3286"
       sodipodi:nodetypes="cssscccc" />
    <path
       style="opacity:0.51503757;fill:url(#radialGradient3510);fill-opacity:1;fill-rule:evenodd;stroke:none"
       d="M 484.375,301.5625 C 417.1875,382.8125 425,431.25 475,543.75 534.20775,676.96743 287.5,554.6875 287.5,554.6875 l 39.0625,-243.75 157.8125,-9.375 z"
       id="path3502"
       sodipodi:nodetypes="csccc" />
  </g>
  <g
     inkscape:groupmode="layer"
     id="layer1"
     inkscape:label="page#1"
     style="display:inline">
    <path
       style="fill:#c9e8ff;fill-opacity:1;fill-rule:evenodd;stroke:#253046;stroke-width:5.95028734;stroke-linecap:round;stroke-linejoin:round;stroke-miterlimit:4;stroke-opacity:1;stroke-dasharray:none;display:inline;enable-background:new"
       d="m 647.47892,312.25804 c 0,0 -25.40496,-11.6818 -38.62585,-17.70451 -13.22088,-6.02271 -42.03545,-20.80055 -44.61898,-20.79035 -2.58354,0.0102 -15.2111,3.21799 -15.2111,3.21799 l 16.88416,31.47895 64.19241,23.34794 17.37936,-19.55002 z"
       id="path3280"
       sodipodi:nodetypes="csscccc" />
    <path
       style="fill:#c1c1c1;fill-opacity:1;fill-rule:evenodd;stroke:#253046;stroke-width:2.66837811;stroke-linecap:round;stroke-linejoin:round;stroke-miterlimit:4;stroke-opacity:1;stroke-dasharray:none;display:inline;enable-background:new"
       d="m 550.4142,469.88921 c 0,0 26.81839,-8.7481 53.36707,-38.79374 22.80237,-25.80589 36.71003,-49.05299 41.42411,-75.39599 4.71407,-26.343 3.39489,-42.39848 1.85433,-43.50961 -1.54055,-1.11114 -14.57413,4.94531 -14.57413,4.94531 l -82.36763,130.75999 0.29625,21.99404 z"
       id="path3278"
       sodipodi:nodetypes="csssccc" />
    <path
       style="fill:#253046;fill-opacity:1;fill-rule:evenodd;stroke:#253046;stroke-width:5.95028734;stroke-linecap:round;stroke-linejoin:round;stroke-miterlimit:4;stroke-opacity:1;stroke-dasharray:none;display:inline;enable-background:new"
       d="m 487.29525,409.69644 c 0,0 6.20304,24.5765 9.05724,26.25088 4.09587,2.4028 18.04257,15.24802 30.18885,22.01833 11.48758,6.40315 21.26798,11.32254 23.46607,11.95491 1.10161,0.31692 1.02303,-15.85265 1.02303,-15.85265 l -34.58492,-28.82717 -29.15027,-15.5443 z"
       id="path3276"
       sodipodi:nodetypes="csssccc" />
    <path
       style="fill:#3c598d;fill-opacity:1;fill-rule:evenodd;stroke:#253046;stroke-width:2.66837811;stroke-linecap:butt;stroke-linejoin:miter;stroke-miterlimit:4;stroke-opacity:1;stroke-dasharray:none;display:inline;enable-background:new"
       d="m 646.63803,312.05406 c -2.70128,-0.25018 -14.15465,5.07808 -14.15465,5.07808 l -26.36658,41.85519 21.71711,10.81721 16.16133,-8.27224 c 0.45237,-1.9279 0.86048,-3.86755 1.21119,-5.8274 4.71409,-26.34302 3.40041,-42.39477 1.85986,-43.50589 -0.0963,-0.0695 -0.24817,-0.1283 -0.42826,-0.14492 z"
       id="path3182" />
    <path
       sodipodi:nodetypes="csssccc"
       id="path3190"
       d="m 550.4142,469.88921 c 0,0 26.81839,-8.7481 53.36707,-38.79374 22.80237,-25.80589 36.71003,-49.05299 41.42411,-75.39599 4.71407,-26.343 3.39489,-42.39848 1.85433,-43.50961 -1.54055,-1.11114 -14.57413,4.94531 -14.57413,4.94531 l -82.36763,130.75999 0.29625,21.99404 z"
       style="fill:#6c727f;fill-opacity:1;stroke:#253046;stroke-width:5.95028734;stroke-linecap:round;stroke-linejoin:round;stroke-miterlimit:4;stroke-opacity:1;stroke-dasharray:none;display:inline;enable-background:new" />
    <path
       style="fill:#ffffff;fill-opacity:1;fill-rule:evenodd;stroke:#253046;stroke-width:2.66837811;stroke-linecap:round;stroke-linejoin:round;stroke-miterlimit:4;stroke-opacity:1;stroke-dasharray:none;display:inline;enable-background:new"
       d="m 548.892,276.74941 c -1.86384,-0.16519 -2.42271,2.27935 -3.03566,9.52185 2.48156,87.50758 -61.62073,79.38533 -55.78806,123.57658 -2.50952,3.47938 13.05612,16.51979 10.70675,17.27281 1.69453,0.77001 3.24393,1.54397 4.57616,2.30671 12.59714,7.21221 41.72231,23.9917 45.91457,24.67344 4.19226,0.68172 26.81334,-13.83308 48.88667,-38.34682 18.23277,-20.24857 27.56609,-40.1671 32.27608,-62.66794 2.12301,-10.1092 3.34766,-32.40359 -0.43558,-35.60065 -3.78322,-3.19707 -14.28778,-7.36033 -30.91411,-14.6631 -19.66378,-8.63691 -40.36606,-19.49122 -45.82616,-22.96097 -1.87692,-1.19275 -5.38438,-3.02537 -6.36066,-3.11191 z"
       id="path3269"
       sodipodi:nodetypes="ccccsssssssc" />
    <path
       style="fill:#c4c7cd;fill-opacity:1;fill-rule:evenodd;stroke:#253046;stroke-width:2.66799998;stroke-linecap:butt;stroke-linejoin:miter;stroke-miterlimit:4;stroke-opacity:1;stroke-dasharray:none;display:inline;enable-background:new"
       d="m 548.892,276.74941 c -1.86384,-0.16519 -2.42271,2.27935 -3.03566,9.52185 -1.43878,15.14195 -1.31334,29.01632 -5.12712,39.80225 l 87.10469,43.73103 0.0212,-0.0153 c 1.86503,-5.43383 3.38328,-10.98719 4.58058,-16.70692 2.12301,-10.10919 3.34035,-32.39979 -0.44289,-35.59688 -3.78322,-3.19707 -14.292,-7.36396 -30.91835,-14.66673 -19.66375,-8.63691 -40.35605,-19.49332 -45.81616,-22.96309 -1.87693,-1.19272 -5.39013,-3.01961 -6.36642,-3.10614 l 6e-5,-3e-5 z"
       id="path3176"
       sodipodi:nodetypes="ccccccssscc" />
    <path
       sodipodi:nodetypes="ccscssssssc"
       id="path3188"
       d="m 548.892,276.74941 c -1.86384,-0.16519 -2.42271,2.27935 -3.03566,9.52185 -5.93573,62.46853 -14.31396,62.87488 -42.16147,90.37457 -14.33451,14.15547 -17.94923,22.31826 -14.17832,42.86004 12.59713,7.21221 57.55695,33.91319 61.74921,34.59493 4.19226,0.68172 26.81334,-13.83308 48.88667,-38.34682 18.23277,-20.24857 27.56609,-40.1671 32.27608,-62.66794 2.12301,-10.1092 3.34766,-32.40359 -0.43558,-35.60065 -3.78322,-3.19707 -14.28778,-7.36033 -30.91411,-14.6631 -19.66378,-8.63691 -40.36606,-19.49122 -45.82616,-22.96097 -1.87692,-1.19275 -5.38438,-3.02537 -6.36066,-3.11191 z"
       style="fill:none;stroke:#253046;stroke-width:5.95028734;stroke-linecap:round;stroke-linejoin:round;stroke-miterlimit:4;stroke-opacity:1;stroke-dasharray:none;display:inline;enable-background:new" />
  </g>
  <g
     inkscape:groupmode="layer"
     id="layer9"
     style="display:inline"
     inkscape:label="tongue"
     sodipodi:insensitive="true">
    <path
       style="fill:#713232;fill-opacity:1;fill-rule:evenodd;stroke:#000000;stroke-width:3.9000001;stroke-linecap:butt;stroke-linejoin:miter;stroke-miterlimit:4;stroke-opacity:0.23333333;stroke-dasharray:none"
       d="m 331.25,461.71875 c 58.59375,-12.5 101.5625,38.28125 107.8125,25 1.41133,-2.99908 3.90625,-3.90625 3.90625,-3.90625 0,0 33.89252,-26.09367 62.5,1.5625 22.33276,21.59011 -40.625,44.53125 -40.625,44.53125 L 403.125,556.25 311.71875,485.9375 331.25,461.71875 z"
       id="path3496"
       sodipodi:nodetypes="cscscccc" />
    <path
       style="opacity:0.33834588;fill:#2e1a1a;fill-opacity:1;fill-rule:evenodd;stroke:none"
       d="M 324.46875,488.8125 C 350.25,453.65625 428.375,510.6875 428.375,510.6875 l -1.5625,32.8125 -93.75,0 -8.59375,-54.6875 z"
       id="path3498"
       sodipodi:nodetypes="ccccc" />
    <path
       style="opacity:0.32706795;fill:none;stroke:#f3b5c7;stroke-width:4.30000019;stroke-linecap:round;stroke-linejoin:miter;stroke-miterlimit:4;stroke-opacity:0.53333285;stroke-dasharray:none"
       d="m 454.6875,482.375 c 22.65625,-7.8125 35.9375,-4.6875 42.96875,3.90625"
       id="path3500" />
  </g>
  <g
     inkscape:groupmode="layer"
     id="layer7"
     inkscape:label="teeth2"
     style="display:inline"
     sodipodi:insensitive="true">
    <path
       style="fill:#f3f4e7;fill-opacity:1;fill-rule:evenodd;stroke:#323232;stroke-width:4.0999999;stroke-linecap:round;stroke-linejoin:round;stroke-miterlimit:4;stroke-opacity:1;stroke-dasharray:none;stroke-dashoffset:0;marker:none;visibility:visible;display:inline;overflow:visible;enable-background:accumulate"
       d="m 368.75,506.25 c 9.375,-9.375 13.7389,-26.80758 13.7389,-26.80758 0,0 6.5736,30.71383 5.79235,38.52633 10.9375,-9.375 24.6764,-47.12008 24.6764,-47.12008 0,0 5.0111,39.30758 2.66735,51.80758 14.0625,-14.0625 26.2389,-59.62008 26.2389,-59.62008 0,0 13.60485,47.12008 13.60485,64.30758 10.15625,-25.78125 9.83265,-61.96383 9.83265,-61.96383 0,0 17.5111,51.02633 18.29235,60.40133 0.78125,-20.3125 2.8014,-51.02633 2.8014,-51.02633 0,0 19.85485,27.58883 26.8861,44.77633 3.90625,-16.40625 0.45765,-49.46383 0.45765,-49.46383 0,0 15.16735,31.49508 15.9486,40.87008 0.78125,9.375 -11.71875,52.34375 -11.71875,52.34375 L 357.8125,535.9375 368.75,506.25 z"
       id="path3462"
       sodipodi:nodetypes="ccccccccccccsccc" />
    <path
       style="fill:#fbfbf6;fill-opacity:1;fill-rule:evenodd;stroke:#323232;stroke-width:4.0999999;stroke-linecap:round;stroke-linejoin:round;stroke-miterlimit:4;stroke-opacity:1;stroke-dasharray:none"
       d="m 369.53125,369.53125 c 25,-6.25 42.75619,0.64721 42.75619,0.64721 0,0 -16.97494,-18.61596 -14.63119,-27.99096 7.03125,0 36.31663,21.33883 36.31663,21.33883 0,0 -3.25905,-28.82773 -2.4778,-37.42148 9.72161,9.75413 27.61184,30.52428 27.61184,30.52428 0,0 -8.19163,-27.99096 4.17433,-42.56663 2.34375,16.40625 29.41942,45.69163 29.41942,45.69163 0,0 6.51808,-34.75413 2.61183,-48.03538 C 491.40625,298.4375 403.90625,275 403.90625,275 l -62.5,82.8125 28.125,11.71875 z"
       id="path3464"
       sodipodi:nodetypes="ccccccccsccc" />
  </g>
  <g
     inkscape:groupmode="layer"
     id="layer2"
     inkscape:label="lines"
     style="display:inline">
    <path
       style="fill:url(#linearGradient3523);fill-opacity:1;fill-rule:evenodd;stroke:#2b1c04;stroke-width:11.75;stroke-linecap:round;stroke-linejoin:round;stroke-miterlimit:4;stroke-opacity:1;stroke-dasharray:none"
       d="M 96.952843,337.98031 C 120.53481,332.66713 157.14286,330 258.57143,284.28572 360,238.57143 420.91178,188.63493 434.28571,182.85714 c 14.28572,-6.1717 28.57143,-6.1717 33.04716,4.66575 8.05138,19.49547 43.4681,110.86441 35.52427,122.47711 -3.50457,5.12316 -37.75959,-4.04029 -77.9803,16.01692 -49.33143,24.60053 -81.69598,71.42857 -87.41026,119.29626 -4.28724,35.91354 16.80815,56.8631 25.83699,60.04396 6.73701,2.37344 18.21481,23.69978 100.2222,22.53331 56.60606,-0.81616 71.80088,-24.18002 75.73639,-14.55323 11.10485,27.16394 4.18611,40.51216 1.06156,66.87387 -3.42952,28.93473 2.04647,71.46928 -6.1154,81.27378 -9.04411,10.86431 -59.5215,7.73399 -89.92261,8.51513 -17.19616,0.45851 -117.0525,-1.3123 -137.5018,-1.75229 -57.56505,-1.23856 -109.62708,0.53781 -115.35534,-3.962 -6.03801,-4.74313 -2.076,-55.04576 -27.14286,-152.85714 C 144.65144,434.81528 107.48856,356.68566 96.952843,337.98031 z"
       id="path2491"
       sodipodi:nodetypes="csssssssssssssssc" />
    <path
       sodipodi:type="arc"
       style="fill:#ffffff;fill-opacity:1;fill-rule:evenodd;stroke:none"
       id="path3282"
       sodipodi:cx="217.85715"
       sodipodi:cy="603.57141"
       sodipodi:rx="37.857143"
       sodipodi:ry="37.857143"
       d="m 255.71429,603.57141 a 37.857143,37.857143 0 1 1 -75.71429,0 37.857143,37.857143 0 1 1 75.71429,0 z"
       transform="translate(33.035714,-3.75)" />
    <path
       style="fill:#ffffff;fill-opacity:1;fill-rule:evenodd;stroke:none"
       d="m 249.15625,464.0625 c -15.70446,0.42369 -32.01518,3.31309 -48.5,9 -15.19646,5.23808 -23.26933,21.80354 -18.03125,37 5.23807,15.19646 21.80354,23.26933 37,18.03125 36.40134,-12.55769 63.21976,-5.35716 83.03125,10.71875 19.81149,16.07591 32.07071,42.78987 30.875,72.1875 -0.51533,10.44723 4.61542,20.36744 13.43921,25.98446 8.8238,5.61702 19.98323,6.06675 29.23041,1.17801 9.24719,-4.88874 15.15959,-14.3639 15.48663,-24.81872 0.95423,-23.46047 -2.84943,-46.563 -12.38009,-66.83152 -8.83435,-18.7877 -17.56742,-24.35985 -35.02307,-38.52412 -12.00076,-9.73794 -24,-32.08757 -46.09435,-36.79736 -15.69068,-3.34474 -31.75883,-7.5943 -49.03374,-7.12825 z"
       id="path3199"
       sodipodi:nodetypes="ccscscsscsssc" />
    <path
       style="fill:#ffffff;fill-opacity:1;fill-rule:evenodd;stroke:none"
       d="m 273.21875,356.84375 c -1.57454,0.007 -3.13774,0.0254 -4.71875,0.0625 -30.3553,0.71231 -61.87951,7.04055 -93.28125,19.34375 -9.72625,3.76336 -16.70848,12.44034 -18.28125,22.75 -1.57276,10.30966 2.49451,20.66403 10.65625,27.15625 8.16174,6.49221 19.18332,8.13277 28.875,4.28125 54.09876,-21.19589 127.00601,-21.01997 136.375,5.59375 4.10778,-20.11394 9.87355,-35.25183 22.6875,-55.59375 -13.45253,-17.29096 -43.2634,-25.29498 -82.3125,-23.59375 z m 217.23089,174.09684 c -7.07243,1.06169 -16.73522,2.32779 -25.81354,2.45868 -13.93041,0.19815 -31.31041,-0.25948 -41.49302,-1.15625 18.15427,22.2788 17.32008,51.175 15.38817,86.06948 -0.88285,10.5556 4.03212,20.74663 12.84375,26.625 8.81163,5.8784 20.12415,6.52519 29.53125,1.65625 9.40708,-4.86897 15.43009,-14.47398 15.71875,-25.0625 2.45075,-68.53822 4.75863,-77.42735 -6.17536,-90.59066 z"
       id="path3201"
       sodipodi:nodetypes="cscssccccccccsscc" />
    <path
       style="opacity:0.09774439;fill:none;stroke:#000000;stroke-width:4.9000001;stroke-linecap:round;stroke-linejoin:round;stroke-miterlimit:4;stroke-opacity:1;stroke-dasharray:none"
       d="m 196.88932,657.26408 c 0,0 318.19805,4.41942 328.14174,1.10486"
       id="path3243" />
  </g>
  <g
     inkscape:groupmode="layer"
     id="layer10"
     inkscape:label="rss"
     style="display:none"
     sodipodi:insensitive="true">
    <path
       style="opacity:0.09398499;fill:#853838;fill-opacity:1;fill-rule:evenodd;stroke:none"
       d="m 121.40261,381.96972 c 15.65356,34.35053 29.60317,77.66665 42.87864,129.46778 25.06686,97.81138 21.11824,148.10062 27.15625,152.84375 5.72826,4.49981 57.7787,2.73022 115.34375,3.96875 20.4493,0.43999 120.30384,2.20851 137.5,1.75 30.40111,-0.78114 80.8934,2.36432 89.9375,-8.5 8.16187,-9.8045 3.43935,-52.26511 6.09375,-81.28125 2.27054,-24.82002 17.80162,4.52782 0.1875,-1.5 -45.96969,8.58842 -84.34314,-0.1096 -177.47731,-42.24508 C 252.57262,486.50416 277.57861,332.56478 121.40261,381.96972 z"
       id="path3515"
       sodipodi:nodetypes="cssscsscsc" />
  </g>
  <g
     inkscape:groupmode="layer"
     id="layer4"
     inkscape:label="page"
     style="display:inline">
    <text
       xml:space="preserve"
       style="font-size:12px;font-style:normal;font-weight:normal;fill:#000000;fill-opacity:1;stroke:none;font-family:Bitstream Vera Sans"
       x="507.8125"
       y="101.5625"
       id="text3335"><tspan
         sodipodi:role="line"
         id="tspan3337"
         x="507.8125"
         y="101.5625" /></text>
  </g>
  <g
     inkscape:groupmode="layer"
     id="layer3"
     inkscape:label="shades"
     style="display:inline">
    <path
       style="opacity:0.69172932;fill:#ffffff;fill-opacity:0.37244897;fill-rule:evenodd;stroke:none"
       d="m 433.17743,182.21383 c -7.7315,3.9891 -14.79676,10.43804 -24.47883,16.35486 -22.23455,30.41067 -44.8542,35.74648 -78.3236,45.65006 -23.64519,8.30776 -57.51066,30.77987 -96.65625,51.8125 -39.14559,21.03263 -82.72166,40.25787 -120.21875,42.3125 -3.23951,0.17626 -6.18188,1.94419 -7.85841,4.72173 -1.67653,2.77753 -1.86995,6.20473 -0.51659,9.15327 78.62131,170.34619 78.66038,294.8466 78.66038,294.8466 -0.25888,5.41066 2.8126,18.84558 8.22326,19.10447 5.41067,0.25888 4.48248,-0.60291 4.74136,-6.01357 0,0 6.11867,-135.14633 -68.375,-303.71875 38.90626,-5.42176 78.84604,-23.93248 114.625,-43.15625 40.02366,-21.50441 75.6557,-44.16113 93.875,-50.5625 8.54881,-3.00364 16.08491,-2.94224 25.5,-4.1875 9.41509,-1.24526 20.5391,-4.50508 31.40625,-14.09375 11.08292,-9.77904 13.88393,-20.63007 15.34375,-26.8125 1.45982,-6.18243 0.73114,-7.41903 8.6875,-12.28125 10.20532,-6.23658 17.89163,-11.49247 23.78125,-14.53125 5.88962,-3.03878 9.25191,-3.86427 13.3125,-3.1875 3.52281,0.74891 7.17256,-0.49461 9.5053,-3.23858 2.33273,-2.74398 1.31532,-0.46959 0.009,-3.82593 -1.98107,-8.25715 -19.23043,-4.09969 -31.2433,1.65334 z"
       id="path3233"
       sodipodi:nodetypes="cccscsccsccssssssscscc" />
    <path
       style="opacity:0.35338344;fill:none;stroke:#1a1f2a;stroke-width:11.75;stroke-linecap:round;stroke-linejoin:round;stroke-miterlimit:4;stroke-opacity:1;stroke-dasharray:none;stroke-dashoffset:0;marker:none;visibility:visible;display:inline;overflow:visible;enable-background:accumulate"
       d="m 528.34562,517.15729 c 0,0 11.51631,10.15317 7.73398,44.19417 -4.41942,39.77475 2.20971,89.4932 2.20971,89.4932"
       id="path3241"
       sodipodi:nodetypes="csc" />
    <path
       sodipodi:nodetypes="csssssssssssssssc"
       id="path3235"
       d="M 96.952843,337.98031 C 120.53481,332.66713 157.14286,330 258.57143,284.28572 360,238.57143 420.91178,188.63493 434.28571,182.85714 c 14.28572,-6.1717 28.57143,-6.1717 33.04716,4.66575 8.05138,19.49547 43.4681,110.86441 35.52427,122.47711 -3.50457,5.12316 -37.75959,-4.04029 -77.9803,16.01692 -49.33143,24.60053 -81.69598,71.42857 -87.41026,119.29626 -4.28724,35.91354 16.80815,56.8631 25.83699,60.04396 6.73701,2.37344 18.21481,23.69978 100.2222,22.53331 56.60606,-0.81616 71.80088,-24.18002 75.73639,-14.55323 11.10485,27.16394 4.18611,40.51216 1.06156,66.87387 -3.42952,28.93473 2.04647,71.46928 -6.1154,81.27378 -9.04411,10.86431 -59.5215,7.73399 -89.92261,8.51513 -17.19616,0.45851 -117.0525,-1.3123 -137.5018,-1.75229 -57.56505,-1.23856 -109.62708,0.53781 -115.35534,-3.962 -6.03801,-4.74313 -2.076,-55.04576 -27.14286,-152.85714 C 144.65144,434.81528 107.48856,356.68566 96.952843,337.98031 z"
       style="fill:none;stroke:#121212;stroke-width:18.95;stroke-linecap:round;stroke-linejoin:round;stroke-miterlimit:4;stroke-opacity:1;stroke-dasharray:none" />
    <path
       sodipodi:type="arc"
       style="fill:#ffffff;fill-opacity:1;fill-rule:evenodd;stroke:#000000;stroke-width:9.375;stroke-linecap:butt;stroke-linejoin:miter;stroke-miterlimit:4;stroke-opacity:1;stroke-dasharray:none"
       id="path2493"
       sodipodi:cx="335.71429"
       sodipodi:cy="202.85715"
       sodipodi:rx="48.57143"
       sodipodi:ry="48.57143"
       d="m 384.28572,202.85715 a 48.57143,48.57143 0 1 1 -97.14286,0 48.57143,48.57143 0 1 1 97.14286,0 z"
       transform="translate(18.57143,-2.8571429)" />
    <path
       sodipodi:type="arc"
       style="fill:#000000;fill-opacity:1;fill-rule:evenodd;stroke:#000000;stroke-width:1px;stroke-linecap:butt;stroke-linejoin:miter;stroke-opacity:1"
       id="path2497"
       sodipodi:cx="337.85715"
       sodipodi:cy="210.71428"
       sodipodi:rx="15"
       sodipodi:ry="15"
       d="m 352.85715,210.71428 a 15,15 0 1 1 -30,0 15,15 0 1 1 30,0 z"
       transform="translate(32,-6)" />
    <path
       style="opacity:0.2180451;fill:none;stroke:#000000;stroke-width:10;stroke-linecap:round;stroke-linejoin:miter;stroke-miterlimit:4;stroke-opacity:1;stroke-dasharray:none"
       d="m 319.04029,231.30552 c -25.35752,-51.84823 27.4684,-85.19817 51.0656,-74.88222"
       id="path3289"
       sodipodi:nodetypes="cc" />
  </g>
</svg>
